<?xml version="1.0" encoding="UTF-8" standalone="no"?>
<!-- Created with Inkscape (http://www.inkscape.org/) -->

<svg
   xmlns:dc="http://purl.org/dc/elements/1.1/"
   xmlns:cc="http://creativecommons.org/ns#"
   xmlns:rdf="http://www.w3.org/1999/02/22-rdf-syntax-ns#"
   xmlns:svg="http://www.w3.org/2000/svg"
   xmlns="http://www.w3.org/2000/svg"
   xmlns:sodipodi="http://sodipodi.sourceforge.net/DTD/sodipodi-0.dtd"
   xmlns:inkscape="http://www.inkscape.org/namespaces/inkscape"
   width="210mm"
   height="297mm"
   viewBox="0 0 210 297"
   version="1.1"
   id="svg8"
   inkscape:version="0.92.3 (2405546, 2018-03-11)"
   sodipodi:docname="audiolegend.svg">
  <defs
     id="defs2" />
  <sodipodi:namedview
     id="base"
     pagecolor="#ffffff"
     bordercolor="#666666"
     borderopacity="1.0"
     inkscape:pageopacity="0.0"
     inkscape:pageshadow="2"
     inkscape:zoom="2.6409091"
     inkscape:cx="299.50636"
     inkscape:cy="535.20979"
     inkscape:document-units="mm"
     inkscape:current-layer="layer1"
     showgrid="false"
     inkscape:window-width="1600"
     inkscape:window-height="845"
     inkscape:window-x="0"
     inkscape:window-y="27"
     inkscape:window-maximized="1" />
  <metadata
     id="metadata5">
    <rdf:RDF>
      <cc:Work
         rdf:about="">
        <dc:format>image/svg+xml</dc:format>
        <dc:type
           rdf:resource="http://purl.org/dc/dcmitype/StillImage" />
        <dc:title />
      </cc:Work>
    </rdf:RDF>
  </metadata>
  <g
     inkscape:label="Layer 1"
     inkscape:groupmode="layer"
     id="layer1">
    <text
       xml:space="preserve"
       style="font-style:normal;font-variant:normal;font-weight:normal;font-stretch:normal;font-size:10.58333302px;line-height:1.25;font-family:MagistralC;-inkscape-font-specification:MagistralC;letter-spacing:0px;word-spacing:0px;fill:#000000;fill-opacity:1;stroke:none;stroke-width:0.26458332"
       x="27.997559"
       y="138.13159"
       id="text12"><tspan
         sodipodi:role="line"
         id="tspan10"
         x="27.997559"
         y="138.13159"
         style="font-style:normal;font-variant:normal;font-weight:normal;font-stretch:normal;font-family:MagistralC;-inkscape-font-specification:MagistralC;stroke-width:0.26458332">AudioLegend</tspan><tspan
         sodipodi:role="line"
         x="27.997559"
         y="151.36076"
         style="font-style:normal;font-variant:normal;font-weight:normal;font-stretch:normal;font-family:MagistralC;-inkscape-font-specification:MagistralC;stroke-width:0.26458332"
         id="tspan14">AUDIO·LEGEND </tspan><tspan
         sodipodi:role="line"
         x="27.997559"
         y="167.47282"
         style="font-style:normal;font-variant:normal;font-weight:normal;font-stretch:normal;font-size:13.75833321px;font-family:MagistralC;-inkscape-font-specification:MagistralC;stroke-width:0.26458332"
         id="tspan16"
         dx="0 0.10018644 0.10018644 0 -6.1208483e-11">AUDIO</tspan><tspan
         sodipodi:role="line"
         x="27.997559"
         y="181.78784"
         style="font-style:normal;font-variant:normal;font-weight:normal;font-stretch:normal;font-family:MagistralC;-inkscape-font-specification:MagistralC;stroke-width:0.26458332"
         id="tspan18">LEGEND</tspan></text>
    <text
       xml:space="preserve"
       style="font-style:normal;font-variant:normal;font-weight:normal;font-stretch:normal;font-size:10.58333302px;line-height:1.25;font-family:MagistralC;-inkscape-font-specification:MagistralC;letter-spacing:0px;word-spacing:0px;fill:#000000;fill-opacity:1;stroke:none;stroke-width:0.26458332"
       x="74.638908"
       y="153.33261"
       id="text22"><tspan
         sodipodi:role="line"
         id="tspan20"
         x="74.638908"
         y="162.94226"
         style="stroke-width:0.26458332" /></text>
    <path
       inkscape:connector-curvature="0"
       id="path80"
       style="font-style:normal;font-variant:normal;font-weight:normal;font-stretch:normal;font-size:13.75833321px;line-height:1.25;font-family:MagistralC;-inkscape-font-specification:MagistralC;letter-spacing:0px;word-spacing:0px;fill:#000000;fill-opacity:1;stroke:none;stroke-width:0.26458332"
       d="m 135.71075,152.63054 h 1.91241 L 138.6,150.19531 h 4.63656 l 0.9906,2.43523 h 1.9124 l -3.6322,-8.65399 q -0.2614,-0.60537 -0.61912,-0.83926 -0.34396,-0.24765 -0.96308,-0.24765 -0.64665,0 -0.9906,0.24765 -0.3302,0.23389 -0.59161,0.83926 z m 4.93924,-7.64963 q 0.0413,-0.11007 0.11007,-0.24765 0.0688,-0.15135 0.1651,-0.15135 0.0963,0 0.1651,0.15135 0.0688,0.13758 0.11006,0.24765 l 1.56845,3.92112 h -3.70099 z" />
    <path
       inkscape:connector-curvature="0"
       id="path82"
       style="font-style:normal;font-variant:normal;font-weight:normal;font-stretch:normal;font-size:13.75833321px;line-height:1.25;font-family:MagistralC;-inkscape-font-specification:MagistralC;letter-spacing:0px;word-spacing:0px;fill:#000000;fill-opacity:1;stroke:none;stroke-width:0.26458332"
       d="m 150.82493,151.29598 q -0.20637,0 -0.46778,-0.0138 -0.24765,-0.0275 -0.50906,-0.0825 -0.24765,-0.0688 -0.4953,-0.19261 -0.23389,-0.12383 -0.42651,-0.3302 -0.34396,-0.37148 -0.41275,-0.8255 -0.055,-0.45403 -0.055,-0.85302 v -5.99863 h -1.8161 v 6.24628 q 0,0.61912 0.13758,1.26577 0.15135,0.63288 0.70168,1.19697 0.35771,0.37148 0.79798,0.57785 0.45403,0.20638 0.90805,0.31644 0.45403,0.0963 0.88054,0.11007 0.4265,0.0275 0.7567,0.0275 0.3302,0 0.75671,-0.0275 0.42651,-0.0138 0.88053,-0.11007 0.45403,-0.11006 0.8943,-0.31644 0.45402,-0.20637 0.81174,-0.57785 0.55033,-0.56409 0.68791,-1.19697 0.15135,-0.64665 0.15135,-1.26577 v -6.24628 h -1.81611 v 5.99863 q 0,0.17886 -0.0138,0.39899 0,0.22013 -0.055,0.44027 -0.0413,0.22013 -0.13758,0.44026 -0.0825,0.22014 -0.24765,0.399 -0.19262,0.20637 -0.44027,0.3302 -0.24765,0.12382 -0.50905,0.19261 -0.26141,0.055 -0.52282,0.0825 -0.24765,0.0138 -0.44027,0.0138 z" />
    <path
       inkscape:connector-curvature="0"
       id="path84"
       style="font-style:normal;font-variant:normal;font-weight:normal;font-stretch:normal;font-size:13.75833321px;line-height:1.25;font-family:MagistralC;-inkscape-font-specification:MagistralC;letter-spacing:0px;word-spacing:0px;fill:#000000;fill-opacity:1;stroke:none;stroke-width:0.26458332"
       d="m 162.14525,152.63054 q 0.56409,0 1.00436,-0.11007 0.44027,-0.11006 0.77047,-0.28892 0.3302,-0.17886 0.55033,-0.38524 0.22013,-0.20637 0.37148,-0.39899 0.28892,-0.38523 0.45402,-0.86677 0.17886,-0.4953 0.26141,-1.00436 0.0963,-0.50906 0.11007,-0.9906 0.0275,-0.48154 0.0275,-0.88053 0,-0.42651 -0.0275,-0.8943 -0.0138,-0.46778 -0.11007,-0.93556 -0.0963,-0.46779 -0.30268,-0.90805 -0.19262,-0.44027 -0.53658,-0.8255 -0.44027,-0.48154 -1.12818,-0.81174 -0.68792,-0.3302 -1.69228,-0.3302 h -3.76978 q -0.44027,0 -0.68792,0.15134 -0.23389,0.15134 -0.34396,0.26141 -0.23389,0.27516 -0.28892,0.56409 -0.0413,0.28892 -0.0413,0.56409 v 6.86541 q 0,0.39899 0.12382,0.63288 0.13759,0.22013 0.27517,0.3302 0.055,0.0413 0.28893,0.15134 0.24765,0.11007 0.78422,0.11007 z m -3.56341,-7.60836 q 0,-0.15134 0.055,-0.27517 0.055,-0.13758 0.13759,-0.20637 0.0963,-0.0688 0.22013,-0.0825 0.12383,-0.0138 0.20638,-0.0138 h 1.88489 q 0.24765,0 0.52281,0.0275 0.27517,0.0275 0.55034,0.11006 0.27516,0.0688 0.52282,0.20638 0.2614,0.13758 0.46778,0.35772 0.22013,0.23389 0.35771,0.53657 0.13759,0.28893 0.20638,0.60537 0.0688,0.31644 0.0825,0.64664 0.0275,0.3302 0.0275,0.63288 0,1.22449 -0.15134,1.84362 -0.15134,0.60537 -0.3302,0.88053 -0.31644,0.50906 -0.8255,0.70168 -0.4953,0.19261 -1.25201,0.19261 h -2.09127 q -0.12382,0 -0.24765,-0.0137 -0.12382,-0.0138 -0.22013,-0.12383 -0.11007,-0.11007 -0.12383,-0.23389 0,-0.13758 0,-0.28893 z" />
    <path
       inkscape:connector-curvature="0"
       id="path86"
       style="font-style:normal;font-variant:normal;font-weight:normal;font-stretch:normal;font-size:13.75833321px;line-height:1.25;font-family:MagistralC;-inkscape-font-specification:MagistralC;letter-spacing:0px;word-spacing:0px;fill:#000000;fill-opacity:1;stroke:none;stroke-width:0.26458332"
       d="m 168.87372,152.63054 v -9.63083 h -1.8161 v 9.63083 z" />
    <path
       inkscape:connector-curvature="0"
       id="path88"
       style="font-style:normal;font-variant:normal;font-weight:normal;font-stretch:normal;font-size:13.75833321px;line-height:1.25;font-family:MagistralC;-inkscape-font-specification:MagistralC;letter-spacing:0px;word-spacing:0px;fill:#000000;fill-opacity:1;stroke:none;stroke-width:0.26458332"
       d="m 175.20191,142.88964 q -0.44027,0 -0.94932,0.0138 -0.4953,0.0138 -1.00436,0.11006 -0.50906,0.0963 -1.00436,0.30269 -0.48154,0.20637 -0.88053,0.59161 -0.399,0.37147 -0.61913,0.85301 -0.22013,0.46779 -0.3302,0.9906 -0.11007,0.50906 -0.13758,1.04564 -0.0275,0.52281 -0.0275,1.01811 0,0.41275 0.0138,0.92181 0.0275,0.50906 0.12382,1.04563 0.11007,0.52282 0.3302,1.03188 0.23389,0.50906 0.64664,0.90805 0.399,0.38523 0.88054,0.59161 0.4953,0.20637 1.00436,0.30268 0.52281,0.0963 1.01811,0.11007 0.50906,0.0138 0.93557,0.0138 0.41275,0 0.92181,-0.0138 0.50905,-0.0138 1.01811,-0.11007 0.52282,-0.0963 1.00436,-0.30268 0.4953,-0.20638 0.89429,-0.59161 0.37148,-0.35772 0.59161,-0.83926 0.22013,-0.48154 0.3302,-1.00436 0.11007,-0.52281 0.13758,-1.04563 0.0413,-0.53658 0.0413,-1.01812 0,-0.46778 -0.0275,-1.00436 -0.0275,-0.53657 -0.15134,-1.05939 -0.11007,-0.52281 -0.3302,-1.00436 -0.22013,-0.48154 -0.59161,-0.83925 -0.39899,-0.38524 -0.89429,-0.59161 -0.48154,-0.20638 -1.00436,-0.30269 -0.50906,-0.0963 -1.01811,-0.11006 -0.4953,-0.0138 -0.92181,-0.0138 z m -3.08187,4.92548 q 0,-1.11442 0.15135,-1.71979 0.1651,-0.61912 0.44026,-0.97684 0.42651,-0.52282 1.07315,-0.64664 0.64664,-0.13759 1.40335,-0.13759 0.74295,0 1.40335,0.13759 0.6604,0.12382 1.08691,0.64664 0.11006,0.13758 0.22013,0.34396 0.11007,0.20637 0.19262,0.52281 0.0825,0.31645 0.12382,0.77047 0.055,0.44027 0.055,1.05939 0,0.57785 -0.055,1.01812 -0.0413,0.44027 -0.12382,0.75671 -0.0826,0.31644 -0.19262,0.53657 -0.0963,0.22014 -0.22013,0.37148 -0.22014,0.27516 -0.4953,0.44026 -0.27517,0.15135 -0.60537,0.2339 -0.31644,0.0825 -0.67415,0.11006 -0.34396,0.0138 -0.71544,0.0138 -0.37147,0 -0.72919,-0.0138 -0.35772,-0.0275 -0.67416,-0.11006 -0.31644,-0.0825 -0.59161,-0.2339 -0.27516,-0.1651 -0.48154,-0.44026 -0.12382,-0.15134 -0.23389,-0.35772 -0.0963,-0.22013 -0.17886,-0.53657 -0.0825,-0.3302 -0.13758,-0.75671 -0.0413,-0.44027 -0.0413,-1.03188 z" />
    <path
       inkscape:connector-curvature="0"
       id="path90"
       style="font-style:normal;font-variant:normal;font-weight:normal;font-stretch:normal;font-size:medium;line-height:1.25;font-family:MagistralC;-inkscape-font-specification:MagistralC;letter-spacing:0px;word-spacing:0px;fill:#000000;fill-opacity:1;stroke:none;stroke-width:0.26458332"
       d="m 142.664,162.7122 v -1.11125 H 138.6 q -0.16934,0 -0.24342,-0.0318 -0.0741,-0.0317 -0.10583,-0.0529 -0.0847,-0.0741 -0.0953,-0.15875 0,-0.0952 0,-0.15875 v -5.89492 h -1.397 v 6.604 q 0,0.24342 0.0847,0.39158 0.0953,0.14817 0.17991,0.22225 0.127,0.10584 0.3175,0.14817 0.1905,0.0423 0.37042,0.0423 z" />
    <path
       inkscape:connector-curvature="0"
       id="path92"
       style="font-style:normal;font-variant:normal;font-weight:normal;font-stretch:normal;font-size:medium;line-height:1.25;font-family:MagistralC;-inkscape-font-specification:MagistralC;letter-spacing:0px;word-spacing:0px;fill:#000000;fill-opacity:1;stroke:none;stroke-width:0.26458332"
       d="m 149.02094,162.7122 v -1.11125 h -3.95816 q -0.16934,0 -0.29634,-0.0106 -0.11641,-0.0212 -0.17991,-0.0847 -0.10584,-0.0847 -0.10584,-0.28575 v -1.73566 h 4.39209 v -1.11125 h -4.39209 v -1.49225 q 0,-0.0847 0.0106,-0.17992 0.0212,-0.0952 0.10584,-0.17992 0.0847,-0.0741 0.17991,-0.0847 0.10584,-0.0212 0.20109,-0.0212 h 4.0005 v -1.11125 h -4.75192 q -0.21167,0 -0.46567,0.0423 -0.24341,0.0423 -0.42333,0.24342 -0.11642,0.13758 -0.1905,0.34925 -0.0635,0.20108 -0.0635,0.42333 v 5.24934 q 0,0.21166 0.0423,0.45508 0.0423,0.23283 0.23283,0.41275 0.17992,0.17992 0.39159,0.21167 0.21166,0.0212 0.45508,0.0212 z" />
    <path
       inkscape:connector-curvature="0"
       id="path94"
       style="font-style:normal;font-variant:normal;font-weight:normal;font-stretch:normal;font-size:medium;line-height:1.25;font-family:MagistralC;-inkscape-font-specification:MagistralC;letter-spacing:0px;word-spacing:0px;fill:#000000;fill-opacity:1;stroke:none;stroke-width:0.26458332"
       d="m 156.60274,159.08212 h -1.397 v 2.02142 q 0,0.0847 -0.0212,0.1905 -0.0106,0.10583 -0.0952,0.1905 -0.0847,0.0847 -0.17991,0.10583 -0.0952,0.0106 -0.1905,0.0106 h -1.80975 q -0.4445,0 -0.81492,-0.14816 -0.37042,-0.15875 -0.60325,-0.62442 -0.0423,-0.0847 -0.0953,-0.22225 -0.0529,-0.14817 -0.0952,-0.37042 -0.0423,-0.22225 -0.0741,-0.51858 -0.0317,-0.30692 -0.0317,-0.70908 0,-0.40217 0.0317,-0.6985 0.0318,-0.29634 0.0741,-0.508 0.0423,-0.21167 0.0952,-0.34925 0.0529,-0.14817 0.10583,-0.23284 0.21167,-0.39158 0.62442,-0.59266 0.41275,-0.21167 1.016,-0.21167 h 3.29142 v -1.11125 h -3.683 q -1.09009,0 -1.78859,0.45508 -0.41275,0.26459 -0.65616,0.64559 -0.23284,0.37041 -0.35984,0.81491 -0.11641,0.43392 -0.15875,0.91017 -0.0317,0.46567 -0.0317,0.92075 0,0.39158 0.0212,0.81492 0.0318,0.42333 0.127,0.83608 0.0953,0.40217 0.28575,0.77258 0.20109,0.37042 0.53975,0.65617 0.254,0.21167 0.67734,0.40217 0.42333,0.17991 1.04775,0.17991 h 3.15383 q 0.15875,0 0.35983,-0.0529 0.21167,-0.0529 0.35984,-0.16934 0.10583,-0.0847 0.1905,-0.26458 0.0847,-0.17992 0.0847,-0.46567 z" />
    <path
       inkscape:connector-curvature="0"
       id="path96"
       style="font-style:normal;font-variant:normal;font-weight:normal;font-stretch:normal;font-size:medium;line-height:1.25;font-family:MagistralC;-inkscape-font-specification:MagistralC;letter-spacing:0px;word-spacing:0px;fill:#000000;fill-opacity:1;stroke:none;stroke-width:0.26458332"
       d="m 163.5937,162.7122 v -1.11125 h -3.95817 q -0.16933,0 -0.29633,-0.0106 -0.11642,-0.0212 -0.17992,-0.0847 -0.10583,-0.0847 -0.10583,-0.28575 v -1.73566 h 4.39208 v -1.11125 h -4.39208 v -1.49225 q 0,-0.0847 0.0106,-0.17992 0.0212,-0.0952 0.10583,-0.17992 0.0847,-0.0741 0.17992,-0.0847 0.10583,-0.0212 0.20108,-0.0212 h 4.0005 v -1.11125 h -4.75192 q -0.21166,0 -0.46566,0.0423 -0.24342,0.0423 -0.42334,0.24342 -0.11641,0.13758 -0.1905,0.34925 -0.0635,0.20108 -0.0635,0.42333 v 5.24934 q 0,0.21166 0.0423,0.45508 0.0423,0.23283 0.23284,0.41275 0.17991,0.17992 0.39158,0.21167 0.21167,0.0212 0.45508,0.0212 z" />
    <path
       inkscape:connector-curvature="0"
       id="path98"
       style="font-style:normal;font-variant:normal;font-weight:normal;font-stretch:normal;font-size:medium;line-height:1.25;font-family:MagistralC;-inkscape-font-specification:MagistralC;letter-spacing:0px;word-spacing:0px;fill:#000000;fill-opacity:1;stroke:none;stroke-width:0.26458332"
       d="m 171.63058,155.30387 h -1.35467 v 5.461 q 0,0.0423 -0.0212,0.11642 -0.0106,0.0635 -0.0952,0.0635 -0.0741,0 -0.10583,-0.0635 -0.0212,-0.0635 -0.0635,-0.11642 l -3.14325,-4.96358 q -0.14817,-0.24342 -0.41275,-0.41275 -0.26458,-0.16934 -0.762,-0.16934 -0.52917,0 -0.83608,0.26459 -0.29634,0.26458 -0.29634,0.74083 v 6.48758 h 1.35467 v -5.43983 q 0,-0.11642 0.0529,-0.15875 0.0529,-0.0529 0.0953,-0.0529 0.0212,0 0.0529,0.0318 0.0317,0.0317 0.11642,0.14817 l 3.12208,4.93183 q 0.24342,0.39159 0.55034,0.508 0.30691,0.11642 0.64558,0.11642 0.45508,0 0.77258,-0.24342 0.32809,-0.24341 0.32809,-0.80433 z" />
    <path
       inkscape:connector-curvature="0"
       id="path100"
       style="font-style:normal;font-variant:normal;font-weight:normal;font-stretch:normal;font-size:medium;line-height:1.25;font-family:MagistralC;-inkscape-font-specification:MagistralC;letter-spacing:0px;word-spacing:0px;fill:#000000;fill-opacity:1;stroke:none;stroke-width:0.26458332"
       d="m 177.02874,162.7122 q 0.43391,0 0.77258,-0.0847 0.33867,-0.0847 0.59267,-0.22225 0.254,-0.13759 0.42333,-0.29634 0.16933,-0.15875 0.28575,-0.30691 0.22225,-0.29634 0.34925,-0.66675 0.13758,-0.381 0.20108,-0.77259 0.0741,-0.39158 0.0847,-0.762 0.0212,-0.37041 0.0212,-0.67733 0,-0.32808 -0.0212,-0.68792 -0.0106,-0.35983 -0.0847,-0.71966 -0.0741,-0.35984 -0.23283,-0.6985 -0.14817,-0.33867 -0.41275,-0.635 -0.33867,-0.37042 -0.86783,-0.62442 -0.52917,-0.254 -1.30175,-0.254 h -2.89983 q -0.33867,0 -0.52917,0.11642 -0.17992,0.11641 -0.26458,0.20108 -0.17992,0.21167 -0.22225,0.43392 -0.0318,0.22225 -0.0318,0.43391 v 5.28109 q 0,0.30691 0.0953,0.48683 0.10583,0.16933 0.21166,0.254 0.0423,0.0318 0.22225,0.11642 0.1905,0.0847 0.60325,0.0847 z m -2.74108,-5.85258 q 0,-0.11642 0.0423,-0.21167 0.0423,-0.10583 0.10583,-0.15875 0.0741,-0.0529 0.16934,-0.0635 0.0952,-0.0106 0.15875,-0.0106 h 1.44991 q 0.1905,0 0.40217,0.0212 0.21166,0.0212 0.42333,0.0847 0.21167,0.0529 0.40217,0.15875 0.20108,0.10584 0.35983,0.27517 0.16933,0.17992 0.27517,0.41275 0.10583,0.22225 0.15875,0.46567 0.0529,0.24341 0.0635,0.49741 0.0212,0.254 0.0212,0.48684 0,0.94191 -0.11641,1.41816 -0.11642,0.46567 -0.254,0.67734 -0.24342,0.39158 -0.635,0.53975 -0.381,0.14816 -0.96309,0.14816 h -1.60866 q -0.0952,0 -0.1905,-0.0106 -0.0952,-0.0106 -0.16933,-0.0952 -0.0847,-0.0847 -0.0952,-0.17992 0,-0.10583 0,-0.22225 z" />
  </g>
</svg>
