solid OpenSCAD_Model
  facet normal -1 0 0
    outer loop
      vertex 0 0 0
      vertex 0 10 30
      vertex 0 10 0
    endloop
  endfacet
  facet normal -1 -0 0
    outer loop
      vertex 0 10 30
      vertex 0 0 0
      vertex 0 0 30
    endloop
  endfacet
  facet normal -0 0 1
    outer loop
      vertex 1 10 1
      vertex 39 1 1
      vertex 39 10 1
    endloop
  endfacet
  facet normal 0 0 1
    outer loop
      vertex 39 1 1
      vertex 1 10 1
      vertex 1 1 1
    endloop
  endfacet
  facet normal -1 0 0
    outer loop
      vertex 39 1 15
      vertex 39 10 1
      vertex 39 1 1
    endloop
  endfacet
  facet normal -1 0 0
    outer loop
      vertex 39 10 1
      vertex 39 1 15
      vertex 39 10 30
    endloop
  endfacet
  facet normal -1 0 0
    outer loop
      vertex 39 0 30
      vertex 39 1 15
      vertex 39 0 15
    endloop
  endfacet
  facet normal -1 0 0
    outer loop
      vertex 39 1 15
      vertex 39 0 30
      vertex 39 10 30
    endloop
  endfacet
  facet normal 0 1 0
    outer loop
      vertex 40 10 30
      vertex 39 10 1
      vertex 39 10 30
    endloop
  endfacet
  facet normal 0 1 0
    outer loop
      vertex 39 10 1
      vertex 40 10 0
      vertex 1 10 1
    endloop
  endfacet
  facet normal 0 1 -0
    outer loop
      vertex 40 10 0
      vertex 39 10 1
      vertex 40 10 30
    endloop
  endfacet
  facet normal 0 1 -0
    outer loop
      vertex 1 10 1
      vertex 0 10 30
      vertex 1 10 30
    endloop
  endfacet
  facet normal 0 1 0
    outer loop
      vertex 1 10 1
      vertex 0 10 0
      vertex 0 10 30
    endloop
  endfacet
  facet normal 0 1 0
    outer loop
      vertex 0 10 0
      vertex 1 10 1
      vertex 40 10 0
    endloop
  endfacet
  facet normal 0 0 -1
    outer loop
      vertex 0 0 0
      vertex 40 10 0
      vertex 40 0 0
    endloop
  endfacet
  facet normal -0 0 -1
    outer loop
      vertex 40 10 0
      vertex 0 0 0
      vertex 0 10 0
    endloop
  endfacet
  facet normal 0 -1 0
    outer loop
      vertex 0 0 30
      vertex 1 0 15
      vertex 1 0 30
    endloop
  endfacet
  facet normal 0 -1 -0
    outer loop
      vertex 1 0 15
      vertex 0 0 0
      vertex 39 0 15
    endloop
  endfacet
  facet normal 0 -1 0
    outer loop
      vertex 0 0 0
      vertex 1 0 15
      vertex 0 0 30
    endloop
  endfacet
  facet normal 0 -1 0
    outer loop
      vertex 39 0 15
      vertex 40 0 30
      vertex 39 0 30
    endloop
  endfacet
  facet normal 0 -1 0
    outer loop
      vertex 39 0 15
      vertex 40 0 0
      vertex 40 0 30
    endloop
  endfacet
  facet normal 0 -1 0
    outer loop
      vertex 40 0 0
      vertex 39 0 15
      vertex 0 0 0
    endloop
  endfacet
  facet normal -0 0 1
    outer loop
      vertex 0 10 30
      vertex 1 0 30
      vertex 1 10 30
    endloop
  endfacet
  facet normal 0 0 1
    outer loop
      vertex 1 0 30
      vertex 0 10 30
      vertex 0 0 30
    endloop
  endfacet
  facet normal 1 0 0
    outer loop
      vertex 1 10 30
      vertex 1 1 15
      vertex 1 10 1
    endloop
  endfacet
  facet normal 1 -0 0
    outer loop
      vertex 1 0 30
      vertex 1 1 15
      vertex 1 10 30
    endloop
  endfacet
  facet normal 1 0 0
    outer loop
      vertex 1 1 15
      vertex 1 0 30
      vertex 1 0 15
    endloop
  endfacet
  facet normal 1 0 0
    outer loop
      vertex 1 10 1
      vertex 1 1 15
      vertex 1 1 1
    endloop
  endfacet
  facet normal -0 0 1
    outer loop
      vertex 39 10 30
      vertex 40 0 30
      vertex 40 10 30
    endloop
  endfacet
  facet normal 0 0 1
    outer loop
      vertex 40 0 30
      vertex 39 10 30
      vertex 39 0 30
    endloop
  endfacet
  facet normal 1 -0 0
    outer loop
      vertex 40 0 30
      vertex 40 10 0
      vertex 40 10 30
    endloop
  endfacet
  facet normal 1 0 0
    outer loop
      vertex 40 10 0
      vertex 40 0 30
      vertex 40 0 0
    endloop
  endfacet
  facet normal -0 0 1
    outer loop
      vertex 1 1 15
      vertex 39 0 15
      vertex 39 1 15
    endloop
  endfacet
  facet normal 0 0 1
    outer loop
      vertex 39 0 15
      vertex 1 1 15
      vertex 1 0 15
    endloop
  endfacet
  facet normal 0 1 -0
    outer loop
      vertex 39 1 1
      vertex 1 1 15
      vertex 39 1 15
    endloop
  endfacet
  facet normal 0 1 0
    outer loop
      vertex 1 1 15
      vertex 39 1 1
      vertex 1 1 1
    endloop
  endfacet
endsolid OpenSCAD_Model
